# xmcd CD database file
#
# Track frame offsets:
#	150
#	39337
#	66800
#	86597
#	118252
#	130715
#	151877
#	175602
#	191957
#	203770
#	248487
#
# Disc length: 3603 seconds
#
# Revision: 0
# Processed by: cddbd v1.5.1PL0 Copyright (c) Steve Scherf et al.
# Submitted via: CDex 1.50
#
DISCID=8c0e110b
DTITLE=Jonny King - The meltdown
DYEAR=1997
DGENRE=Jazz
TTITLE0=The Meltdown
TTITLE1=After six
TTITLE2=The third rall
TTITLE3=Quiet as it's kept
TTITLE4=So sorry please
TTITLE5=Jacqueline's chimes
TTITLE6=Lady Macbeth
TTITLE7=The wellspring
TTITLE8=Cochabamba
TTITLE9=For tomorrow
TTITLE10=Blues for Andrew Hill
EXTD=YEAR: 1997
EXTT0=
EXTT1=
EXTT2=
EXTT3=
EXTT4=
EXTT5=
EXTT6=
EXTT7=
EXTT8=
EXTT9=
EXTT10=
PLAYORDER=
